<svg xmlns="http://www.w3.org/2000/svg" viewBox="0 0 100 100">
  <rect width="100" height="100" rx="20" fill="#0a0a0f"/>
  <defs>
    <linearGradient id="g" x1="0%" y1="0%" x2="100%" y2="100%">
      <stop offset="0%" stop-color="#06b6d4"/>
      <stop offset="100%" stop-color="#d946ef"/>
    </linearGradient>
  </defs>
  <!-- Speech bubble left (MAKER) -->
  <path d="M12 22 Q12 14 20 14 L52 14 Q60 14 60 22 L60 42 Q60 50 52 50 L28 50 L18 60 L20 50 L20 50 Q12 50 12 42 Z" fill="#06b6d4" opacity="0.9"/>
  <!-- Speech bubble right (CHECKER) -->
  <path d="M42 50 Q42 42 50 42 L80 42 Q88 42 88 50 L88 70 Q88 78 80 78 L58 78 L80 88 L78 78 Q42 78 42 70 Z" fill="#d946ef" opacity="0.9"/>
  <!-- B letter -->
  <text x="32" y="38" font-family="sans-serif" font-size="18" font-weight="bold" fill="white">B</text>
  <text x="57" y="67" font-family="sans-serif" font-size="14" font-weight="bold" fill="white">C</text>
</svg>
